<svg xmlns="http://www.w3.org/2000/svg" fill="none" viewBox="-1 -1 48 48" id="Book-Open-3--Streamline-Cyber" height="48" width="48">
  <desc>
    Book Open 3 Streamline Icon: https://streamlinehq.com
  </desc>
  <path fill="#ffffff" d="m23 44.560008333333336 -17.6400225 -9.799916666666668V1.4399859166666666L23 11.239908333333334 40.64004166666666 1.4399859166666666V34.76009166666667L23 44.560008333333336Z" stroke-width="2"></path>
  <path fill="#6b705c" d="M5.360035 6.785 1.4400740833333334 5.359958333333333v33.320100000000004L23 44.560008333333336l-17.639965 -9.799916666666668V6.785Z" stroke-width="2"></path>
  <path fill="#6b705c" d="M40.64004166666666 6.785v27.975091666666668L23 44.560008333333336l21.560008333333332 -5.87995V5.359958333333333l-3.919966666666667 1.4250416666666668Z" stroke-width="2"></path>
  <path stroke="#6b705c" stroke-linecap="round" stroke-linejoin="round" d="M5.360035 6.785 1.4400740833333334 5.359958333333333v33.320100000000004L23 44.560008333333336l-17.639965 -9.799916666666668V6.785Z" stroke-width="2"></path>
  <path stroke="#6b705c" stroke-linecap="round" stroke-linejoin="round" d="M40.64004166666666 6.785v27.975091666666668L23 44.560008333333336l21.560008333333332 -5.87995V5.359958333333333l-3.919966666666667 1.4250416666666668Z" stroke-width="2"></path>
  <path stroke="#6b705c" stroke-linecap="round" stroke-linejoin="round" d="m23 44.560008333333336 -17.6400225 -9.799916666666668V1.4399859166666666L23 11.239908333333334 40.64004166666666 1.4399859166666666V34.76009166666667L23 44.560008333333336Z" stroke-width="2"></path>
  <path stroke="#6b705c" stroke-linecap="round" stroke-linejoin="round" d="M23 11.2401v33.31990833333333" stroke-width="2"></path>
</svg>