<svg width="296" height="213" viewBox="0 0 296 213" fill="none" xmlns="http://www.w3.org/2000/svg">
<rect width="64" height="2" transform="translate(56 3)" fill="url(#paint0_linear_44_24)"/>
<path d="M128 4C128 1.79086 129.791 0 132 0C134.209 0 136 1.79086 136 4C136 6.20914 134.209 8 132 8C129.791 8 128 6.20914 128 4Z" fill="#CB997E"/>
<path d="M144 4C144 1.79086 145.791 0 148 0C150.209 0 152 1.79086 152 4C152 6.20914 150.209 8 148 8C145.791 8 144 6.20914 144 4Z" fill="#DDBEA9"/>
<path d="M160 4C160 1.79086 161.791 0 164 0C166.209 0 168 1.79086 168 4C168 6.20914 166.209 8 164 8C161.791 8 160 6.20914 160 4Z" fill="#6B705C"/>
<rect width="64" height="2" transform="translate(176 3)" fill="url(#paint1_linear_44_24)"/>
<rect width="64" height="2" transform="translate(56 208)" fill="url(#paint2_linear_44_24)"/>
<path d="M128 209C128 206.791 129.791 205 132 205V205C134.209 205 136 206.791 136 209V209C136 211.209 134.209 213 132 213V213C129.791 213 128 211.209 128 209V209Z" fill="#CB997E"/>
<path d="M144 209C144 206.791 145.791 205 148 205V205C150.209 205 152 206.791 152 209V209C152 211.209 150.209 213 148 213V213C145.791 213 144 211.209 144 209V209Z" fill="#DDBEA9"/>
<path d="M160 209C160 206.791 161.791 205 164 205V205C166.209 205 168 206.791 168 209V209C168 211.209 166.209 213 164 213V213C161.791 213 160 211.209 160 209V209Z" fill="#6B705C"/>
<rect width="64" height="2" transform="translate(176 208)" fill="url(#paint3_linear_44_24)"/>
<g filter="url(#filter0_d_44_24)">
<path d="M85.2375 147V133H109.037V147H85.2375ZM78.2375 141.4V38.08L92.2375 35V147L78.2375 141.4ZM60.1775 175C54.4842 175 49.8642 173.973 46.3175 171.92C42.7708 169.867 40.0642 167.3 38.1975 164.22C36.3308 161.14 35.0708 158.013 34.4175 154.84C33.7642 151.76 33.4375 149.147 33.4375 147C33.4375 142.893 34.2775 138.973 35.9575 135.24C37.7308 131.507 39.9708 128.193 42.6775 125.3C45.3842 122.313 48.1842 119.887 51.0775 118.02C51.2642 119.793 51.1708 121.473 50.7975 123.06C50.4242 124.647 49.5842 126.327 48.2775 128.1C49.3042 128.567 50.1442 129.267 50.7975 130.2C51.5442 131.04 52.0575 131.973 52.3375 133C52.6175 134.027 52.6175 135.1 52.3375 136.22C51.0308 135.473 49.8642 134.96 48.8375 134.68C47.9042 134.307 46.7842 134.213 45.4775 134.4C42.8642 134.68 40.9042 136.173 39.5975 138.88C38.2908 141.587 37.6375 144.293 37.6375 147C37.6375 150.547 38.2908 153.813 39.5975 156.8C40.9975 159.88 43.3308 162.353 46.5975 164.22C49.8642 166.087 54.3908 167.02 60.1775 167.02C64.9375 167.02 68.6242 165.947 71.2375 163.8C73.8508 161.747 75.6708 158.76 76.6975 154.84C77.7242 151.013 78.2375 146.533 78.2375 141.4V108.08L92.2375 105V147C92.2375 152.227 91.0242 156.94 88.5975 161.14C86.1708 165.433 82.5775 168.793 77.8175 171.22C73.1508 173.74 67.2708 175 60.1775 175ZM103.427 147V133H151.027V147H103.427ZM145.399 147V133H192.999V147H145.399ZM213.899 87.12C211.659 87.12 209.745 86.3267 208.159 84.74C206.572 83.1533 205.779 81.24 205.779 79C205.779 76.76 206.572 74.8467 208.159 73.26C209.745 71.6733 211.659 70.88 213.899 70.88C216.139 70.88 218.052 71.6733 219.639 73.26C221.225 74.8467 222.019 76.76 222.019 79C222.019 81.24 221.225 83.1533 219.639 84.74C218.052 86.3267 216.139 87.12 213.899 87.12ZM189.679 87.12C187.439 87.12 185.525 86.3267 183.939 84.74C182.352 83.1533 181.559 81.24 181.559 79C181.559 76.76 182.352 74.8467 183.939 73.26C185.525 71.6733 187.439 70.88 189.679 70.88C191.919 70.88 193.832 71.6733 195.419 73.26C197.005 74.8467 197.799 76.76 197.799 79C197.799 81.24 197.005 83.1533 195.419 84.74C193.832 86.3267 191.919 87.12 189.679 87.12ZM187.372 147V133H204.172V108.08L218.172 105V143.78C218.172 144.9 217.705 145.693 216.772 146.16C215.839 146.627 214.905 146.907 213.972 147C213.039 147 212.572 147 212.572 147H187.372ZM209.717 168C215.037 169.4 219.377 170.007 222.737 169.82C226.191 169.633 228.851 168.887 230.717 167.58C232.584 166.273 233.844 164.64 234.497 162.68C235.244 160.72 235.617 158.76 235.617 156.8V108.08L249.617 105V155.4C249.617 160.347 248.544 164.36 246.397 167.44C244.344 170.613 241.637 172.9 238.277 174.3C234.917 175.793 231.371 176.493 227.637 176.4C223.997 176.307 220.591 175.513 217.417 174.02C214.151 172.62 211.584 170.613 209.717 168Z" fill="#6B705C"/>
</g>
<defs>
<filter id="filter0_d_44_24" x="27.4375" y="32" width="228.18" height="153.54" filterUnits="userSpaceOnUse" color-interpolation-filters="sRGB">
<feFlood flood-opacity="0" result="BackgroundImageFix"/>
<feColorMatrix in="SourceAlpha" type="matrix" values="0 0 0 0 0 0 0 0 0 0 0 0 0 0 0 0 0 0 127 0" result="hardAlpha"/>
<feOffset dy="3"/>
<feGaussianBlur stdDeviation="3"/>
<feComposite in2="hardAlpha" operator="out"/>
<feColorMatrix type="matrix" values="0 0 0 0 0 0 0 0 0 0 0 0 0 0 0 0 0 0 0.12 0"/>
<feBlend mode="normal" in2="BackgroundImageFix" result="effect1_dropShadow_44_24"/>
<feBlend mode="normal" in="SourceGraphic" in2="effect1_dropShadow_44_24" result="shape"/>
</filter>
<linearGradient id="paint0_linear_44_24" x1="32" y1="0" x2="32" y2="2" gradientUnits="userSpaceOnUse">
<stop stop-opacity="0"/>
<stop offset="1" stop-color="#6B705C"/>
</linearGradient>
<linearGradient id="paint1_linear_44_24" x1="32" y1="0" x2="32" y2="2" gradientUnits="userSpaceOnUse">
<stop stop-opacity="0"/>
<stop offset="1" stop-color="#6B705C"/>
</linearGradient>
<linearGradient id="paint2_linear_44_24" x1="32" y1="0" x2="32" y2="2" gradientUnits="userSpaceOnUse">
<stop stop-opacity="0"/>
<stop offset="1" stop-color="#6B705C"/>
</linearGradient>
<linearGradient id="paint3_linear_44_24" x1="32" y1="0" x2="32" y2="2" gradientUnits="userSpaceOnUse">
<stop stop-opacity="0"/>
<stop offset="1" stop-color="#6B705C"/>
</linearGradient>
</defs>
</svg>
